<svg xmlns="http://www.w3.org/2000/svg" width="892" height="1024" viewBox="0 0 892 1024" fill="none">
<path d="M1476.21 634.872L1754.76 641.736L1480.5 648.515L1387.72 835.709C1386.75 837.682 1385.25 839.344 1383.39 840.505C1382.07 841.341 1380.59 841.908 1379.05 842.174C1377.51 842.44 1375.93 842.399 1374.41 842.053C1372.88 841.708 1371.44 841.065 1370.17 840.161C1368.89 839.257 1367.8 838.11 1366.97 836.785L1366.63 836.288L1079.78 381.572C1074.31 372.902 1061.63 373.086 1056.42 381.912L891.336 661.163C888.278 666.319 883.955 670.606 878.778 673.616C873.6 676.625 867.741 678.258 861.756 678.359H860.355L616.706 681.957L540.096 683.071H519.614L475.679 683.108H296.403C293.882 683.108 291.463 684.11 289.678 685.894C287.894 687.679 286.888 690.1 286.883 692.626V692.745C286.884 705.846 292.079 718.411 301.323 727.676C310.568 736.942 323.107 742.15 336.183 742.156H548.531C553.325 742.156 558.052 743.273 562.341 745.418C566.629 747.564 570.36 750.679 573.24 754.518L1179.45 1562.5C1277.1 1699.17 1479.91 1699.17 1577.56 1562.5L2710.82 52.034C2768.81 -29.119 2768.85 -126.129 2729.49 -202.847C2687.62 -284.48 2603.37 -336 2511.77 -336H1443.23C1422.12 -336 1390.75 -283.881 1378.5 -283.881C1366.24 -283.881 1337.7 -336 1316.62 -336H245.236C45.9944 -336 -69.79 -110.275 46.1814 52.034L458.104 601.062L820.473 604.622C826.741 604.684 832.925 603.173 838.46 600.225C843.995 597.277 848.705 592.987 852.161 587.747L1044.2 296.563L1045.03 295.323C1047.34 291.871 1050.42 288.999 1054.02 286.932C1060.16 283.466 1067.42 282.581 1074.21 284.472C1081 286.363 1086.77 290.875 1090.24 297.019L1368.96 791.155C1369.76 792.57 1370.92 793.746 1372.32 794.564C1373.73 795.381 1375.32 795.81 1376.94 795.807C1378.56 795.804 1380.15 795.368 1381.55 794.544C1382.95 793.721 1384.1 792.539 1384.9 791.121L1470.15 638.51L1470.32 638.221C1470.9 637.175 1471.76 636.31 1472.8 635.719C1473.84 635.129 1475.02 634.836 1476.21 634.872Z" fill="#5998A4" fill-opacity="0.1"/>
</svg>