<svg width="961" height="460" viewBox="0 0 961 460" fill="none" xmlns="http://www.w3.org/2000/svg">
<path d="M630.4 390.729C642.568 411.79 660.066 429.279 681.136 441.438C702.206 453.596 726.106 459.997 750.434 459.997C774.762 459.997 798.661 453.596 819.731 441.438C840.801 429.279 858.299 411.79 870.468 390.729L1176.31 -18.7294L1473.68 -416.886C1487.09 -434.584 1495.91 -455.32 1499.37 -477.251C1502.23 -496.942 1500.82 -517.018 1495.24 -536.118C1489.66 -555.217 1480.04 -572.894 1467.03 -587.95C1454.02 -603.005 1437.92 -615.088 1419.82 -623.379C1401.73 -631.669 1382.07 -635.973 1362.16 -636H787.091C784.553 -636 782.097 -635.105 780.153 -633.474L757.414 -614.594C755.492 -612.953 753.047 -612.052 750.519 -612.052C747.992 -612.052 745.547 -612.953 743.625 -614.594L721.914 -633.388C719.943 -635.069 717.438 -635.995 714.848 -636H138.788C118.865 -635.987 99.1768 -631.689 81.0615 -623.397C62.9463 -615.104 46.8279 -603.012 33.8004 -587.941C20.7731 -572.871 11.1418 -555.174 5.56055 -536.052C-0.0206299 -516.931 -1.42126 -496.833 1.45398 -477.123C4.91626 -455.193 13.7422 -434.457 27.1479 -416.757" fill="#5998A4"/>
</svg>
