<svg xmlns="http://www.w3.org/2000/svg" width="473" height="1145" viewBox="0 0 473 1145" fill="none">
<path d="M306.165 1131.77C325.497 1141.3 346.66 1145.59 367.528 1144.24C388.395 1142.88 408.232 1135.91 425.046 1124.04C441.859 1112.16 455.057 1095.79 463.312 1076.58C471.568 1057.37 474.591 1035.98 472.078 1014.58L471.095 564.637L470.114 127.131C470.202 107.59 465.548 88.0558 456.564 70.2646C448.329 54.41 436.945 40.3564 423.183 29.0567C409.421 17.7569 393.603 9.47508 376.801 4.77266C360 0.0702327 342.608 -0.942857 325.804 1.80207C309 4.54699 293.177 10.9858 279.409 20.6819L-118.032 301.409C-119.786 302.648 -121.02 304.503 -121.517 306.65L-127.44 331.613C-127.918 333.756 -129.14 335.611 -130.887 336.845C-132.634 338.079 -134.791 338.61 -136.97 338.344L-161.723 335.143C-163.956 334.871 -166.167 335.414 -167.96 336.675L-566.082 617.882C-579.845 627.617 -591.222 640.384 -599.441 655.316C-607.66 670.248 -612.529 686.995 -613.716 704.42C-614.903 721.845 -612.382 739.54 -606.322 756.305C-600.262 773.069 -590.807 788.509 -578.598 801.578C-564.831 815.99 -547.978 826.907 -529.533 833.359" fill="#006677"/>
</svg>