<svg width="300" height="218" viewBox="0 0 300 218" fill="none" xmlns="http://www.w3.org/2000/svg">
<path d="M139.367 105.566L109.057 106.313L138.9 107.05L148.996 127.404C149.101 127.619 149.265 127.799 149.468 127.925C149.612 128.016 149.772 128.078 149.939 128.107C150.107 128.136 150.279 128.132 150.445 128.094C150.611 128.057 150.768 127.987 150.906 127.888C151.045 127.79 151.164 127.665 151.254 127.521L151.29 127.467L182.503 78.0244C182.639 77.8084 182.828 77.6311 183.053 77.5094C183.277 77.3878 183.529 77.3258 183.784 77.3294C184.039 77.3331 184.289 77.4022 184.51 77.5302C184.731 77.6583 184.915 77.8409 185.045 78.0607L203.008 108.425C203.341 108.985 203.811 109.451 204.375 109.779C204.938 110.106 205.576 110.283 206.227 110.294H206.38L232.893 110.686L241.229 110.807H243.459L248.24 110.811H267.751C268.025 110.811 268.288 110.92 268.482 111.114C268.677 111.308 268.786 111.571 268.787 111.846V111.859C268.787 113.284 268.222 114.651 267.215 115.658C266.209 116.666 264.844 117.232 263.42 117.232H240.315C239.793 117.232 239.279 117.353 238.812 117.587C238.346 117.82 237.94 118.159 237.627 118.576L171.662 206.43C161.037 221.293 138.968 221.293 128.343 206.43L5.02464 42.1921C-1.28456 33.3683 -1.28944 22.8182 2.9929 14.4781C5.23434 10.1204 8.63053 6.46439 12.8094 3.91065C16.9883 1.35692 21.7886 0.00395816 26.6845 0L142.954 0C145.254 0 148.664 5.66687 149.998 5.66687C151.331 5.66687 154.439 0 156.734 0H273.315C294.991 0 307.594 24.5439 294.975 42.1921L250.152 101.89L210.72 102.277C210.038 102.284 209.366 102.119 208.763 101.799C208.161 101.478 207.648 101.012 207.272 100.442L186.377 68.7805L186.287 68.6459C186.036 68.2709 185.702 67.9588 185.311 67.7338C184.643 67.3568 183.853 67.2605 183.114 67.4661C182.375 67.6716 181.747 68.1621 181.369 68.8301L151.041 122.561C150.954 122.715 150.828 122.843 150.676 122.932C150.524 123.021 150.35 123.068 150.174 123.068C149.997 123.068 149.824 123.021 149.672 122.932C149.519 122.843 149.393 122.715 149.307 122.561L140.026 105.962L140.008 105.93C139.945 105.817 139.852 105.722 139.739 105.658C139.625 105.594 139.497 105.562 139.367 105.566Z" fill="#5998A4"/>
</svg>
