<svg xmlns="http://www.w3.org/2000/svg" width="550" height="402" viewBox="0 0 550 402" fill="none">
  <path d="M318.991 376.49C314.533 384.213 308.121 390.626 300.4 395.084C292.68 399.543 283.923 401.89 275.008 401.89C266.094 401.89 257.337 399.543 249.616 395.084C241.896 390.626 235.484 384.213 231.025 376.49L118.957 226.346L9.99586 80.3468C5.08256 73.8571 1.84841 66.2533 0.581009 58.2114C-0.467251 50.9909 0.0484603 43.6294 2.09318 36.6258C4.1379 29.6222 7.66384 23.1403 12.4319 17.6195C17.2 12.0987 23.0989 7.66816 29.7285 4.62815C36.3581 1.58814 43.5635 0.00975323 50.8563 0H261.576C262.506 0.000125328 263.406 0.328076 264.118 0.926233L272.451 7.84944C273.155 8.45095 274.051 8.78141 274.977 8.78141C275.903 8.78141 276.799 8.45095 277.503 7.84944L285.459 0.957631C286.181 0.341271 287.099 0.0018502 288.048 0L499.129 0C506.429 0.00462497 513.643 1.58079 520.281 4.62149C526.919 7.66218 532.825 12.0962 537.599 17.6225C542.372 23.1489 545.901 29.6381 547.947 36.6497C549.992 43.6612 550.505 51.031 549.451 58.2585C548.183 66.3 544.949 73.9036 540.036 80.3939" fill="#CB8B8B"/>
</svg>