<svg xmlns="http://www.w3.org/2000/svg" width="545" height="563" viewBox="0 0 545 563" fill="none">
  <path d="M544.347 495.121C545.628 505.571 544.137 516.174 540.022 525.865C535.908 535.556 529.316 543.993 520.908 550.33C512.5 556.667 502.573 560.679 492.123 561.964C481.674 563.249 471.07 561.761 461.378 557.65L249.007 495.772L42.5099 435.593C33.2651 432.968 24.8125 428.099 17.9037 421.419C11.7852 415.357 7.04151 408.051 3.99432 399.995C0.947121 391.94 -0.332368 383.323 0.242583 374.729C0.817536 366.135 3.23349 357.766 7.32666 350.187C11.4198 342.609 17.0945 335.999 23.966 330.806L222.714 181.02C223.591 180.359 224.673 180.029 225.77 180.086L238.547 180.69C239.639 180.756 240.719 180.431 241.592 179.773C242.466 179.115 243.076 178.166 243.313 177.099L245.92 164.947C246.163 163.852 246.788 162.88 247.682 162.204L446.77 12.1609C453.659 6.97582 461.583 3.33366 470.004 1.48173C478.425 -0.370204 487.146 -0.388562 495.575 1.42789C504.003 3.24435 511.942 6.85306 518.852 12.0091C525.763 17.1651 531.483 23.7477 535.624 31.3099C540.14 39.7923 542.492 49.259 542.47 58.869" fill="#CB8B8B"/>
</svg>