<svg xmlns="http://www.w3.org/2000/svg" width="415" height="567" viewBox="0 0 415 567" fill="none">
<path d="M388.052 238.15C396.012 242.746 402.622 249.356 407.218 257.315C411.813 265.274 414.232 274.302 414.232 283.492C414.232 292.682 411.813 301.71 407.218 309.669C402.622 317.628 396.012 324.238 388.052 328.835L233.297 444.367L82.8143 556.696C76.1253 561.761 68.2879 565.095 59.9991 566.402C52.5569 567.482 44.9692 566.951 37.7505 564.843C30.5319 562.735 23.8509 559.1 18.1606 554.184C12.4703 549.269 7.90365 543.188 4.77028 536.353C1.63691 529.519 0.0100508 522.091 -2.28933e-06 514.572L-1.17849e-05 297.339C0.00011735 296.381 0.338139 295.453 0.954666 294.719L8.09048 286.129C8.71047 285.403 9.05107 284.479 9.05107 283.524C9.05107 282.57 8.71047 281.646 8.09048 280.92L0.987027 272.719C0.351739 271.974 0.00189408 271.028 -1.29778e-05 270.049L-2.24896e-05 52.4442C0.00474419 44.918 1.62931 37.481 4.76339 30.6379C7.89746 23.7949 12.4677 17.7062 18.1637 12.7852C23.8597 7.86413 30.5483 4.22589 37.7752 2.11761C45.0021 0.00927538 52.5981 -0.519778 60.0476 0.566343C68.3361 1.8742 76.1731 5.20819 82.8628 10.2722" fill="#CB8B8B"/>
</svg>